
<svg xmlns="http://www.w3.org/2000/svg" viewBox="0 0 602.3 181.5" width="602.3" height="181.5">
  <path fill="#F90" d="M373.642 141.973c-34.999 25.797-85.729 39.561-129.406 39.561-61.243 0-116.377-22.651-158.088-60.325-3.277-2.963-.341-7 3.592-4.693 45.014 26.191 100.673 41.947 158.166 41.947 38.775 0 81.43-8.022 120.65-24.67 5.925-2.517 10.88 3.88 5.086 8.18"/>
  <path fill="#F90" d="M388.193 125.076c-4.457-5.715-29.573-2.7-40.846-1.363-3.434.42-3.958-2.57-.865-4.719 20.003-14.078 52.827-10.015 56.654-5.296 3.828 4.745-.996 37.647-19.794 53.352-2.884 2.412-5.637 1.127-4.352-2.071 4.22-10.539 13.685-34.16 9.203-39.903"/>
  <path d="M348.497 19.754v-13.62c0-2.07 1.573-3.45 3.46-3.45h61.269c1.966 0 3.54 1.38 3.54 3.45v11.67c-.026 1.966-1.678 4.536-4.614 8.599l-31.749 45.329c11.798-.288 24.25 1.468 34.947 7.498 2.413 1.364 3.068 3.356 3.251 5.322v14.553c0 1.994-2.202 4.33-4.509 3.12-18.85-9.883-43.887-10.958-64.73.105-2.124 1.154-4.352-1.154-4.352-3.148v-13.798c0-2.229.026-6.03 2.255-9.412l36.782-52.748h-32.011c-1.966 0-3.54-1.38-3.54-3.47zM124.999 105.454H106.25c-1.782-.13-3.2-1.47-3.36-3.183V12.448c0-1.934 1.6-3.46 3.592-3.46h17.448c1.835.08 3.3 1.496 3.436 3.247v11.85h.34c4.547-12.124 13.098-17.763 24.622-17.763 11.695 0 19.002 5.64 24.24 17.763 4.52-12.124 14.854-17.763 25.934-17.763 7.877 0 16.57 3.247 21.84 10.537 5.959 8.116 4.729 19.922 4.729 30.276l-.021 60.093c0 1.934-1.6 3.46-3.592 3.46h-18.709c-1.86-.13-3.329-1.6-3.329-3.46V51.86c0-4.095.367-14.317-.524-18.18-1.392-6.525-5.56-8.37-10.959-8.37-4.521 0-9.244 3.037-11.167 7.919-1.914 4.88-1.732 13.022-1.732 18.632v53.593c0 1.934-1.6 3.46-3.592 3.46h-18.709c-1.887-.13-3.329-1.6-3.329-3.46l-.026-53.592c0-10.852 1.77-26.77-11.63-26.77-13.57 0-13.045 15.546-13.045 26.77v53.592c0 1.934-1.6 3.46-3.592 3.46M469.514 1.164c27.66 0 42.629 23.752 42.629 54.01 0 29.228-16.543 52.35-42.629 52.35-27.16 0-41.947-23.752-41.947-53.281 0-29.753 14.97-53.079 41.947-53.079m.157 19.53c-13.759 0-14.627 18.763-14.627 30.458 0 11.723-.184 36.696 14.47 36.696 14.47 0 15.151-20.152 15.151-32.404 0-8.075-.341-17.723-2.77-25.39-2.097-6.659-6.265-9.36-12.224-9.36M548.09 105.454h-18.67c-1.86-.13-3.33-1.6-3.33-3.46L526.07 12.32c.157-1.756 1.653-3.13 3.513-3.13h17.367c1.6.08 2.921 1.182 3.251 2.676v14.235h.34c5.216-13.154 12.626-19.403 25.62-19.403 8.428 0 16.673 3.038 21.965 11.355 4.926 7.759 4.926 20.752 4.926 30.12v60.858c-.21 1.678-1.704 3.034-3.592 3.034h-18.764c-1.705-.13-3.12-1.39-3.303-3.034V51.492c0-10.697 1.236-26.323-11.906-26.323-4.625 0-8.868 3.092-10.982 7.837-2.676 5.979-3.038 11.958-3.038 18.486v53.512c-.026 1.934-1.652 3.46-3.644 3.46M242.687 73.525c0 7.315.184 13.417-3.512 19.922-2.998 5.322-7.762 8.59-13.074 8.59-7.235 0-11.486-5.511-11.486-13.68 0-16.099 14.446-19.037 28.072-19.037v4.205zm18.999 45.848c-1.258 1.13-3.07 1.206-4.485.446-6.29-5.216-7.446-7.631-10.878-12.595-10.405 10.616-17.761 13.78-31.278 13.78-15.989 0-28.435-9.874-28.435-29.647 0-15.42 8.371-25.924 20.283-31.075 10.355-4.561 24.827-5.374 35.88-6.629v-2.467c0-4.537.341-9.902-2.307-13.807-2.335-3.513-6.818-4.954-10.747-4.954-7.314 0-13.837 3.747-15.415 11.537-.315 1.706-1.547 3.383-3.25 3.46l-18.146-1.968c-1.546-.341-3.251-1.573-2.812-3.907C195.279 14.209 214.624.024 232.385.024c9.022 0 20.803 2.39 27.923 9.195 9.022 8.398 8.168 19.594 8.168 31.782v28.752c0 8.65 3.592 12.456 6.947 17.129 1.18 1.678 1.442 3.696-.053 4.955-3.773 3.17-10.486 9.043-14.183 12.351l-.21-.025V73.525"/>
</svg>
