
<svg width="800px" height="800px" viewBox="7.082 -380.929 957.518 957.518" xmlns="http://www.w3.org/2000/svg">
    <path d="M380.724 149.019c-34.999 25.798-85.729 39.562-129.406 39.562-61.243 0-116.377-22.652-158.088-60.325-3.277-2.962-.341-7 3.592-4.692 45.015 26.189 100.673 41.947 158.166 41.947 38.774 0 81.43-8.023 120.65-24.671 5.925-2.517 10.88 3.879 5.086 8.179" fill="#f90"/>
    <path d="M395.275 132.372c-4.457-5.715-29.573-2.701-40.847-1.363-3.434.42-3.958-2.569-.865-4.719 20.004-14.079 52.827-10.016 56.655-5.297 3.827 4.746-.996 37.648-19.794 53.352-2.884 2.412-5.637 1.127-4.352-2.07 4.222-10.54 13.686-34.162 9.203-39.903" fill="#f90"/>
    <path d="M348.497 19.754v-13.62c0-2.07 1.573-3.45 3.46-3.45h61.269c1.966 0 3.54 1.38 3.54 3.45v11.67c-.026 1.966-1.678 4.536-4.614 8.599l-31.749 45.329c11.798-.288 24.25 1.468 34.947 7.498 2.413 1.364 3.068 3.356 3.251 5.322v14.553c0 1.994-2.202 4.33-4.509 3.12-18.85-9.883-43.887-10.958-64.73.105-2.124 1.154-4.352-1.154-4.352-3.148v-13.798c0-2.229.026-6.03 2.255-9.412l36.782-52.748h-32.011c-1.966 0-3.54-1.38-3.54-3.47zM124.999 105.454H106.25c-1.782-.13-3.2-1.47-3.36-3.183V12.448c0-1.934 1.6-3.46 3.592-3.46h17.448c1.835.08 3.3 1.496 3.436 3.247v11.85h.34c4.547-12.124 13.098-17.763 24.622-17.763 11.695 0 19.002 5.64 24.24 17.763 4.52-12.124 14.854-17.763 25.934-17.763 7.877 0 16.57 3.247 21.84 10.537 5.959 8.116 4.729 19.922 4.729 30.276l-.021 60.093c0 1.934-1.6 3.46-3.592 3.46h-18.709c-1.86-.13-3.329-1.6-3.329-3.46V51.86c0-4.095.367-14.317-.524-18.18-1.392-6.525-5.56-8.37-10.959-8.37-4.521 0-9.244 3.037-11.167 7.919-1.914 4.88-1.732 13.022-1.732 18.632v53.593c0 1.934-1.6 3.46-3.592 3.46h-18.709c-1.887-.13-3.329-1.6-3.329-3.46l-.026-53.592c0-10.852 1.77-26.77-11.63-26.77-13.57 0-13.045 15.546-13.045 26.77v53.592c0 1.934-1.6 3.46-3.592 3.46"/>
</svg>
