
<svg xmlns="http://www.w3.org/2000/svg" height="120" width="240" viewBox="0 0 311.8 75.9">
  <path d="M281.2 65.7h-2.2c-13.9 0-25.2-11.3-25.2-25.2S265.1 15.3 279 15.3h2.2v-3.8c0-4.8-3.3-8.5-7.9-8.5h-27.5v46.7c0 11.3 7.9 20.5 17.6 20.5h25.6V60.9c-1.9 3.3-4.8 4.8-7.8 4.8zm0-44.2h-2.2c-10.5 0-19 8.5-19 19s8.5 19 19 19h2.2v-38z" fill="#0081fb"/>
  <path d="M281.2 65.7c3-.1 5.9-1.5 7.8-4.8v10.4H306V3h-24.8v6.2c-1.9-3.3-4.8-4.8-7.8-4.8h-2.2v17.1h2.2c10.5 0 19 8.5 19 19s-8.5 19-19 19h-2.2v6.2z" fill="#0081fb"/>
  <path d="M306 3v68.3h-17V3z" fill="#0064e0"/>
  <path d="M245.8 3h-27.5c-4.6 0-7.9 3.7-7.9 8.5v3.8h2.2c13.9 0 25.2 11.3 25.2 25.2s-11.3 25.2-25.2 25.2h-2.2v4.8h9.9c9.7 0 17.6-9.2 17.6-20.5V3" fill="#e9401e"/>
  <path d="M210.4 15.3h2.2v-3.8c0-4.8-3.3-8.5-7.9-8.5h-27.5v69.4h-17V3h43.2c9.7 0 17.6 9.2 17.6 20.5v46.7h-17V15.3h6.4z" fill="#e9401e"/>
  <path d="M212.6 15.3h-2.2v50.5h-17V3h9.3c4.6 0 7.9 3.7 7.9 8.5v3.8z" fill="#fd8b31"/>
  <path d="M160.2 3h-24.8v68.3h17V53.4h7.8c13.9 0 25.2-11.3 25.2-25.2S174.1 3 160.2 3zm0 44.2h-7.8V9.2h7.8c10.5 0 19 8.5 19 19s-8.5 19-19 19z" fill="#0064e0"/>
  <path d="M108.5 28.2c0-13.9-11.3-25.2-25.2-25.2S58.1 14.3 58.1 28.2s11.3 25.2 25.2 25.2 25.2-11.3 25.2-25.2z" fill="#fd8b31"/>
  <path d="M108.5 28.2c0 13.9-11.3 25.2-25.2 25.2S58.1 42.1 58.1 28.2 69.4 3 83.3 3s25.2 11.3 25.2 25.2zm-19 0c0-3.4-2.8-6.2-6.2-6.2s-6.2 2.8-6.2 6.2 2.8 6.2 6.2 6.2 6.2-2.8 6.2-6.2z" fill="#e9401e"/>
  <path d="M41.8 3H17v68.3h17V44.8h7.8c13.9 0 25.2-11.3 25.2-25.2S55.7 3 41.8 3zm0 35.6H34V9.2h7.8c9.9 0 17.9 8 17.9 17.9s-8 11.5-17.9 11.5z" fill="#0064e0"/>
  <path d="M41.8 38.6c9.9 0 17.9-3.7 17.9-13.5 0-9.9-8-17.9-17.9-17.9H34V9.2h7.8c9.9 0 17.9 8 17.9 17.9s-8 11.5-17.9 11.5z" fill="#0081fb"/>
</svg>
