
<svg xmlns="http://www.w3.org/2000/svg" viewBox="0 0 604 129" width="604" height="129">
  <title>Microsoft logo</title>
  <path d="M213.2 74.3l-3.6 10.2h-.3c-.6-2.3-1.7-5.8-3.5-10L186.5 26h-18.9v77.3h12.5V63c0-3 0-6.4-.1-10.6-.1-2.1-.3-3.7-.4-4.9h.3c.6 3 1.3 5.2 1.8 6.6l23.2 48.3h8.8l23-47.5c.5-1.3 1.1-3.9 1.9-7.3h.3c-.3 5.7-.5 10.8-.6 13.9v40.3h13.3V26h-18.2l-19.8 48.3zm50.7-30.5c-3.6 0-6.5 1.2-8.5 3.5-2.1 2.3-3.1 5.3-3.1 8.9 0 3.9 1.5 7.1 4.6 9.5 3.1 2.4 9.6 5 19.6 7.8 9.9 2.7 16.9 6.1 21.1 10.2 4.2 4.1 6.3 10.1 6.3 18.1 0 8-3.1 14.5-9.2 19.5-6.2 5-14.3 7.5-24.5 7.5-10.7 0-19.9-2.8-27.7-8.4l3.7-12.1c8.3 5.1 16.1 7.6 23.4 7.6 4.4 0 8-1 10.7-3.1 2.6-2.1 4-5 4-8.7 0-3.7-1.3-6.7-4-9-2.6-2.3-8.2-4.7-16.8-7.1-9.5-2.7-16.3-6-20.5-9.9-4.2-3.9-6.3-9.5-6.3-16.6 0-8 3-14.6 9-19.5 6-5 13.5-7.5 22.7-7.5 9.1 0 17.2 2 24.3 5.9l-3.5 12c-7.3-3.5-14.3-5.3-20.9-5.3zm86.3 0c-10.2 0-18.3 3.4-24.3 10.3-6 6.9-9 16.2-9 27.9 0 10.8 2.9 19.6 8.6 26.3 5.7 6.8 13.2 10.1 22.5 10.1 9 0 16.5-3.1 22.7-9.2v-12.1c-6.4 4.7-12.5 7-18.3 7-6.7 0-12.1-2.3-16.3-6.8-4.2-4.6-6.3-10.7-6.3-18.5 0-8.1 2.2-14.7 6.5-19.7 4.3-5.1 9.8-7.6 16.5-7.6 5.9 0 11.9 2.3 17.9 6.9v-12.9c-5.6-3.2-11.5-4.7-17.5-4.7zm41.9 2.3v-15.2h-13.7v15.2h-11v11.2h11v43.3c0 9.1 1.7 15.5 5.1 19.1 3.4 3.6 9.5 5.4 18.1 5.4 3.8 0 7.5-.4 11.1-1v-11.2c-2.3.4-4.7.6-7.2.6-4.1 0-7-1-8.6-3.1-1.6-2.1-2.4-5.7-2.4-10.9v-42.1h18.1v-11.3h-20.5zm115.1 28.3c0-8.4-2.5-15.3-7.4-20.6-4.9-5.3-11.4-8-19.4-8-8.5 0-15.3 2.6-20.4 7.9-5.1 5.3-7.7 12.3-7.7 21.1 0 8.7 2.6 15.7 7.7 20.9 5.1 5.2 11.9 7.8 20.4 7.8 7.9 0 14.6-2.8 20.1-8.5v-15.5c-5.7 5.9-11.2 8.9-16.6 8.9-4.2 0-7.6-1.6-10.3-4.8-2.7-3.2-4-7.4-4-12.8 0-5.5 1.3-9.9 4-13 2.7-3.2 6.1-4.7 10.2-4.7 5.1 0 10.5 3 16.2 9v-9c-1.8-1.6-4.2-2.9-7.3-3.9-3.1-1-6.2-1.5-9.4-1.5-9.8 0-17.7 3.3-23.6 9.8-5.9 6.5-8.9 15.2-8.9 26 0 10.2 3 18.4 8.9 24.6 5.9 6.2 13.9 9.3 23.9 9.3 4.3 0 8.3-.8 11.9-2.4 3.6-1.6 6.3-3.4 8.1-5.5v-7.7c-3.4 4.8-9.2 7.3-17.2 7.3-5.7 0-10.3-1.9-13.8-5.7-3.5-3.8-5.3-8.9-5.3-15.3h41.3v-5.8c.1-1 .1-1.8.1-2.6zm-154 30.8c-4.2 0-7.6-1.6-10.1-4.9-2.5-3.3-3.7-7.6-3.7-13 0-6 1.3-10.7 3.8-14.1 2.5-3.4 6-5.1 10.4-5.1 4.2 0 7.5 1.5 10 4.4 2.5 2.9 3.7 7 3.7 12.3 0 5.8-1.3 10.5-3.8 14-2.6 3.6-6 5.4-10.3 5.4zm46.4-45.7c-3.4-1.9-7.1-2.8-11.1-2.8-8.5 0-15.2 2.6-20 7.9-4.8 5.3-7.3 12.5-7.3 21.8 0 8.7 2.5 15.7 7.5 20.9 5 5.2 11.8 7.8 20.3 7.8 7.4 0 14-2.6 19.9-7.7v-15.2c-6 5.7-11.4 8.5-16.2 8.5-4.4 0-8-1.7-10.7-5.2-2.8-3.5-4.1-8.1-4.1-13.9 0-5.7 1.4-10.2 4.1-13.6 2.7-3.4 6.3-5.1 10.7-5.1 5 0 10.4 2.9 16.2 8.7v-14.7c-1.8-1.7-4.5-3-8.3-4.2zm172.6 13.2c0-5.3 1.1-9.5 3.2-12.5 2.1-3 5.1-4.5 9-4.5 2.2 0 4.5.7 7 2.2v-12.2c-1.9-1-4-1.5-6.3-1.5-3.9 0-7.3 1.5-10.1 4.4-2.8 2.9-4.7 6.6-5.6 11h-.3v-14.6h-12.9v67.6h13.7v-40c0-3.5.1-6.2.2-8.1.1-1.9.1-2.8.1-2.8z" fill="#737373"/>
  <path fill="#F25022" d="M0 0h61.3v61.3H0z"/>
  <path fill="#7FBA00" d="M67.7 0H129v61.3H67.7z"/>
  <path fill="#00A4EF" d="M0 67.7h61.3V129H0z"/>
  <path fill="#FFB900" d="M67.7 67.7H129V129H67.7z"/>
</svg>
