
<svg width="800px" height="800px" viewBox="0 -406.53 1033.746 1033.746" xmlns="http://www.w3.org/2000/svg">
    <path d="M1033.746 99.838v-18.18h-22.576V53.395l-.76.234-21.205 6.488-.418.127v21.415h-33.469v-11.93c0-5.555 1.242-9.806 3.69-12.641 2.431-2.801 5.908-4.225 10.343-4.225 3.188 0 6.489.751 9.811 2.232l.833.372V36.321l-.392-.144c-3.099-1.114-7.314-1.675-12.539-1.675-6.585 0-12.568 1.433-17.786 4.273-5.221 2.844-9.328 6.904-12.205 12.066-2.867 5.156-4.322 11.111-4.322 17.701v13.116h-15.72v18.18h15.72v76.589h22.567V99.838h33.469v48.671c0 20.045 9.455 30.203 28.102 30.203 3.064 0 6.289-.359 9.582-1.062 3.352-.722 5.635-1.443 6.979-2.213l.297-.176v-18.348l-.918.607c-1.225.816-2.75 1.483-4.538 1.979-1.796.505-3.296.758-4.458.758-4.368 0-7.6-1.177-9.605-3.5-2.028-2.344-3.057-6.443-3.057-12.177V99.838h22.575z"/>
    <path d="M866.635 160.26c-8.191 0-14.649-2.716-19.2-8.066-4.579-5.377-6.899-13.043-6.899-22.783 0-10.049 2.32-17.914 6.901-23.386 4.554-5.436 10.95-8.195 19.014-8.195 7.825 0 14.054 2.635 18.516 7.836 4.484 5.228 6.76 13.03 6.76 23.196 0 10.291-2.14 18.196-6.36 23.484-4.191 5.248-10.493 7.914-18.732 7.914m1.003-80.885c-15.627 0-28.039 4.579-36.889 13.61-8.844 9.032-13.328 21.531-13.328 37.153 0 14.838 4.377 26.773 13.011 35.468 8.634 8.698 20.384 13.104 34.921 13.104 15.148 0 27.313-4.643 36.159-13.799 8.845-9.146 13.326-21.527 13.326-36.784 0-15.07-4.205-27.094-12.502-35.731-8.301-8.641-19.977-13.021-34.698-13.021"/>
    <path fill="#F25022" d="M0 0h61.3v61.3H0z"/>
    <path fill="#7FBA00" d="M67.7 0H129v61.3H67.7z"/>
    <path fill="#00A4EF" d="M0 67.7h61.3V129H0z"/>
    <path fill="#FFB900" d="M67.7 67.7H129V129H67.7z"/>
</svg>
